<svg id="icon_linkedin" xmlns="http://www.w3.org/2000/svg" width="21" height="21" viewBox="0 0 21 21">
  <rect id="Rectangle_26" data-name="Rectangle 26" width="21" height="21" rx="10.5" fill="#fff"/>
  <g id="linkedin2" transform="translate(2.088 0.547)">
    <path id="Path_222" data-name="Path 222" d="M12,12h2.535v1.3h.036a2.811,2.811,0,0,1,2.5-1.3c2.675,0,3.17,1.666,3.17,3.832v4.412H17.6V16.332c0-.933-.019-2.133-1.374-2.133-1.376,0-1.586,1.016-1.586,2.065v3.979H12Z" transform="translate(-5.42 -4.336)" fill="#333"/>
    <path id="Path_223" data-name="Path 223" d="M2,12H4.748v8.244H2Z" transform="translate(0 -4.336)" fill="#333"/>
    <path id="Path_224" data-name="Path 224" d="M4.748,5.374A1.374,1.374,0,1,1,3.374,4,1.374,1.374,0,0,1,4.748,5.374Z" fill="#333"/>
  </g>
</svg>
